<svg width="40" height="40" viewBox="0 0 40 40" fill="none" xmlns="http://www.w3.org/2000/svg">
<g clip-path="url(#clip0_17_172)">
<path d="M20.002 37.7605L27.9261 35.7595C32.4491 32.0037 35.3301 26.3387 35.3301 20.0002C35.3301 10.2233 28.4777 2.04695 19.3135 0.0117188C8.5857 0.373516 0 9.18414 0 20.0001C0 25.5557 2.26562 30.5818 5.92281 34.206L20.002 37.7605Z" fill="#CBE2FF"/>
<path d="M34.9151 20C34.9151 26.5559 31.7604 32.3743 26.8866 36.0218L34.0765 34.2061C37.734 30.5819 40 25.5558 40 20C40 8.9543 31.0457 0 19.9999 0C19.1387 0 18.2901 0.0545312 17.4575 0.160156C27.3028 1.40922 34.9151 9.81563 34.9151 20Z" fill="#BED8FB"/>
<path d="M24.9698 7.57422C24.9698 6.55273 24.1417 5.72469 23.1202 5.72469H16.7466C14.3958 5.72469 12.49 7.63047 12.49 9.98133V14.7073H27.5063V10.0484C27.5063 9.02687 26.6783 8.19883 25.6568 8.19883H25.5944C25.2494 8.19883 24.9698 7.91922 24.9698 7.57422Z" fill="#365E7D"/>
<path d="M25.6568 8.19885H25.5944C25.2494 8.19885 24.9697 7.91916 24.9697 7.57416C24.9697 6.55267 24.1417 5.72462 23.1202 5.72462H22.4214V14.7073H27.5062V10.0483C27.5063 9.02697 26.6782 8.19885 25.6568 8.19885Z" fill="#2B4D66"/>
<path d="M33.2063 29.0901C32.7174 28.6071 32.1125 28.2336 31.4259 28.0162L25.9656 26.2875L20.0009 26.0779L14.0338 26.2875L8.57353 28.0162C6.72634 28.6011 5.47095 30.3153 5.47095 32.2529V33.7446C8.97009 37.4421 13.8656 39.8046 19.3134 39.9883C25.4171 38.6326 30.4953 34.5527 33.2063 29.0901Z" fill="#4A80AA"/>
<path d="M34.5284 33.7447V32.253C34.5284 30.883 33.9003 29.6252 32.8796 28.7988C29.9803 34.7071 24.2529 38.976 17.4619 39.8392C18.2816 39.943 19.1164 39.9984 19.9639 39.9999C20.7782 39.9987 21.5818 39.9515 22.3721 39.8607C27.1401 39.2973 31.3943 37.0565 34.5284 33.7447Z" fill="#407093"/>
<path d="M20.4524 39.7005C21.6625 37.2981 24.8135 30.4765 23.915 26.2154L20.0008 24.6921L16.083 26.2155C15.1567 30.6081 18.5338 37.7215 19.6518 39.9101C19.9207 39.8455 20.1877 39.7756 20.4524 39.7005Z" fill="#E4F6FF"/>
<path d="M22.5155 37.7959L20.9285 31.5524H19.0717L17.4885 37.7789L19.4462 39.9583C19.9431 39.8445 20.4332 39.7126 20.9157 39.5633L22.5155 37.7959Z" fill="#E28086"/>
<path d="M19.4764 39.9923C19.6385 39.9966 19.801 39.9995 19.964 39.9998C20.1527 39.9995 20.3407 39.9962 20.5282 39.9909L21.5366 38.877C20.7429 39.1554 19.9264 39.3852 19.0906 39.5628L19.4764 39.9923Z" fill="#DD636E"/>
<path d="M23.3412 25.639V22.1182H16.6553V25.639C16.6553 27.4853 19.9982 29.502 19.9982 29.502C19.9982 29.502 23.3412 27.4853 23.3412 25.639Z" fill="#FFDDCE"/>
<path d="M27.5063 14.0871H26.2283C25.5175 14.0871 24.9413 13.511 24.9413 12.8002V12.0959C24.9413 11.17 24.0355 10.5154 23.1564 10.806C21.1062 11.4836 18.8924 11.4838 16.8421 10.8064L16.8397 10.8056C15.9606 10.5153 15.0549 11.1699 15.0549 12.0956V12.8003C15.0549 13.511 14.4787 14.0872 13.768 14.0872H12.49V16.1917C12.49 16.7295 12.9259 17.1655 13.4637 17.1655C13.6334 17.1655 13.7715 17.2984 13.7822 17.4677C13.9875 20.7231 16.6912 23.3001 19.9982 23.3001C23.3052 23.3001 26.0089 20.7231 26.2142 17.4677C26.2249 17.2985 26.363 17.1655 26.5326 17.1655C27.0704 17.1655 27.5064 16.7295 27.5064 16.1917V14.0871H27.5063Z" fill="#FFDDCE"/>
<path d="M26.2284 14.0872C25.5177 14.0872 24.9415 13.511 24.9415 12.8002V12.0959C24.9415 11.1701 24.0356 10.5155 23.1566 10.806C22.9137 10.8862 22.6685 10.9562 22.4216 11.0175V17.9684C22.3874 20.23 21.1482 22.1983 19.3181 23.262C19.5416 23.2863 19.7684 23.3 19.9983 23.3C23.3053 23.3 26.009 20.723 26.2143 17.4677C26.225 17.2984 26.3631 17.1654 26.5327 17.1654C27.0705 17.1654 27.5065 16.7295 27.5065 16.1916V14.0871H26.2284V14.0872Z" fill="#FFCBBE"/>
<path d="M16.6554 24.6921L14.0337 26.8223L16.7831 30.2218C17.1175 30.5474 17.6439 30.5674 18.0022 30.2682L20.0698 28.5411L16.6554 24.6921Z" fill="#F4FBFF"/>
<path d="M23.3424 24.6921L20.0696 28.5411L22.0129 30.2026C22.3689 30.507 22.8978 30.4917 23.2356 30.1672L25.9653 26.8223L23.3424 24.6921Z" fill="#F4FBFF"/>
<path d="M16.6555 24.6921L12.8074 26.5826C12.5144 26.7265 12.3968 27.0829 12.5464 27.373L13.3003 28.8347C13.4957 29.2135 13.4236 29.675 13.122 29.9761C12.9668 30.1311 12.7986 30.2989 12.6529 30.4443C12.3922 30.7047 12.2985 31.0893 12.4133 31.4394C13.3236 34.2142 17.7043 38.4572 19.3622 39.9924C19.4737 39.9954 19.5854 39.9974 19.6974 39.9986C18.4951 37.6601 14.2347 28.7756 16.6555 24.6921Z" fill="#365E7D"/>
<path d="M26.8761 29.9761C26.5745 29.675 26.5025 29.2134 26.6979 28.8347L27.4518 27.3729C27.6014 27.0829 27.4837 26.7265 27.1907 26.5825L23.3426 24.6921C25.7628 28.7745 21.5054 37.6553 20.3018 39.9968C20.4149 39.9948 20.5278 39.992 20.6404 39.9883C22.3018 38.4496 26.6754 34.2117 27.5848 31.4395C27.6996 31.0893 27.606 30.7047 27.3452 30.4444C27.1995 30.2989 27.0314 30.131 26.8761 29.9761Z" fill="#365E7D"/>
<path d="M20.0696 28.541L18.0337 30.2413L19.071 31.5523H20.9278L21.9653 30.164L20.0696 28.541Z" fill="#DD636E"/>
</g>
<defs>
<clipPath id="clip0_17_172">
<rect width="40" height="40" fill="white"/>
</clipPath>
</defs>
</svg>
