<svg width="19" height="13" viewBox="0 0 19 13" fill="none" xmlns="http://www.w3.org/2000/svg">
<path d="M17.0858 6.89915H2.68577V2.41031C2.68507 2.24126 2.7348 2.0738 2.83208 1.91762C2.92936 1.76144 3.07226 1.61965 3.2525 1.50044L3.2675 1.49047C3.54998 1.30289 3.91264 1.17789 4.30596 1.13253C4.69927 1.08717 5.10405 1.12367 5.465 1.23705C5.12412 1.61396 4.98243 2.05582 5.06245 2.49242C5.14248 2.92902 5.43963 3.33531 5.90668 3.64673L6.31734 3.91983L5.56145 4.42253L6.40993 4.98678L7.16582 4.4841L11.3542 1.69885L12.11 1.19617L11.2615 0.631899L10.5056 1.13458L10.0949 0.861479C9.60327 0.535421 8.95514 0.334428 8.26351 0.293523C7.57188 0.252618 6.88059 0.374396 6.3101 0.637635C5.70854 0.384991 4.99564 0.275923 4.28854 0.328347C3.58143 0.380772 2.92216 0.591572 2.41903 0.926118L2.40403 0.936093C2.112 1.12924 1.88047 1.35898 1.72285 1.61203C1.56523 1.86508 1.48465 2.13641 1.48577 2.41031V6.89915H0.285767V7.69717H1.48577V8.46277C1.48574 8.52709 1.50134 8.591 1.53197 8.65202L2.64827 10.879C2.70784 10.9982 2.82239 11.1019 2.97564 11.1754C3.1289 11.2489 3.31307 11.2883 3.50199 11.2882H3.98574L3.54827 12.2858H4.79825L5.23577 11.2882H13.0395L13.4895 12.2858H14.742L14.292 11.2882H15.0694C15.2583 11.2884 15.4425 11.2489 15.5958 11.1754C15.7491 11.102 15.8637 10.9982 15.9233 10.879L17.0395 8.65202C17.0701 8.591 17.0857 8.52709 17.0858 8.46277V7.69717H18.2858V6.89915H17.0858ZM6.75527 1.42575C7.08586 1.20638 7.53382 1.08317 8.00085 1.08317C8.46788 1.08317 8.91583 1.20638 9.24643 1.42575L9.65702 1.69885L7.16593 3.35546L6.75527 3.08241C6.42541 2.86255 6.24015 2.56466 6.24015 2.25408C6.24015 1.9435 6.42541 1.64561 6.75527 1.42575ZM15.8858 8.43035L14.8533 10.4902H3.71822L2.68577 8.43035V7.69717H15.8858V8.43035Z" fill="black" fill-opacity="0.46"/>
</svg>
