<svg width="19" height="11" viewBox="0 0 19 11" fill="none" xmlns="http://www.w3.org/2000/svg">
<path d="M5.15909 6.25C6.51727 6.25 7.61364 5.35667 7.61364 4.25C7.61364 3.14333 6.51727 2.25 5.15909 2.25C3.80091 2.25 2.70455 3.14333 2.70455 4.25C2.70455 5.35667 3.80091 6.25 5.15909 6.25ZM5.15909 3.58333C5.60909 3.58333 5.97727 3.88333 5.97727 4.25C5.97727 4.61667 5.60909 4.91667 5.15909 4.91667C4.70909 4.91667 4.34091 4.61667 4.34091 4.25C4.34091 3.88333 4.70909 3.58333 5.15909 3.58333ZM14.9773 1.58333H8.43182V6.91667H1.88636V0.25H0.25V10.25H1.88636V8.25H16.6136V10.25H18.25V4.25C18.25 2.77667 16.7855 1.58333 14.9773 1.58333ZM16.6136 6.91667H10.0682V2.91667H14.9773C15.8773 2.91667 16.6136 3.51667 16.6136 4.25V6.91667Z" fill="black" fill-opacity="0.46"/>
</svg>
