<svg width="145" height="18" viewBox="0 0 145 18" fill="none" xmlns="http://www.w3.org/2000/svg">
<path d="M7.305 7.6C7.915 7.73 8.405 8.035 8.775 8.515C9.145 8.985 9.33 9.525 9.33 10.135C9.33 11.015 9.02 11.715 8.4 12.235C7.79 12.745 6.935 13 5.835 13H0.93V2.47H5.67C6.74 2.47 7.575 2.715 8.175 3.205C8.785 3.695 9.09 4.36 9.09 5.2C9.09 5.82 8.925 6.335 8.595 6.745C8.275 7.155 7.845 7.44 7.305 7.6ZM3.495 6.73H5.175C5.595 6.73 5.915 6.64 6.135 6.46C6.365 6.27 6.48 5.995 6.48 5.635C6.48 5.275 6.365 5 6.135 4.81C5.915 4.62 5.595 4.525 5.175 4.525H3.495V6.73ZM5.385 10.93C5.815 10.93 6.145 10.835 6.375 10.645C6.615 10.445 6.735 10.16 6.735 9.79C6.735 9.42 6.61 9.13 6.36 8.92C6.12 8.71 5.785 8.605 5.355 8.605H3.495V10.93H5.385ZM19.2327 4.63V13H16.6677V11.86C16.4077 12.23 16.0527 12.53 15.6027 12.76C15.1627 12.98 14.6727 13.09 14.1327 13.09C13.4927 13.09 12.9277 12.95 12.4377 12.67C11.9477 12.38 11.5677 11.965 11.2977 11.425C11.0277 10.885 10.8927 10.25 10.8927 9.52V4.63H13.4427V9.175C13.4427 9.735 13.5877 10.17 13.8777 10.48C14.1677 10.79 14.5577 10.945 15.0477 10.945C15.5477 10.945 15.9427 10.79 16.2327 10.48C16.5227 10.17 16.6677 9.735 16.6677 9.175V4.63H19.2327ZM20.7151 8.8C20.7151 7.94 20.8751 7.185 21.1951 6.535C21.5251 5.885 21.9701 5.385 22.5301 5.035C23.0901 4.685 23.7151 4.51 24.4051 4.51C24.9551 4.51 25.4551 4.625 25.9051 4.855C26.3651 5.085 26.7251 5.395 26.9851 5.785V1.9H29.5501V13H26.9851V11.8C26.7451 12.2 26.4001 12.52 25.9501 12.76C25.5101 13 24.9951 13.12 24.4051 13.12C23.7151 13.12 23.0901 12.945 22.5301 12.595C21.9701 12.235 21.5251 11.73 21.1951 11.08C20.8751 10.42 20.7151 9.66 20.7151 8.8ZM26.9851 8.815C26.9851 8.175 26.8051 7.67 26.4451 7.3C26.0951 6.93 25.6651 6.745 25.1551 6.745C24.6451 6.745 24.2101 6.93 23.8501 7.3C23.5001 7.66 23.3251 8.16 23.3251 8.8C23.3251 9.44 23.5001 9.95 23.8501 10.33C24.2101 10.7 24.6451 10.885 25.1551 10.885C25.6651 10.885 26.0951 10.7 26.4451 10.33C26.8051 9.96 26.9851 9.455 26.9851 8.815ZM34.7358 4.51C35.3258 4.51 35.8408 4.63 36.2808 4.87C36.7308 5.11 37.0758 5.425 37.3158 5.815V4.63H39.8808V12.985C39.8808 13.755 39.7258 14.45 39.4158 15.07C39.1158 15.7 38.6508 16.2 38.0208 16.57C37.4008 16.94 36.6258 17.125 35.6958 17.125C34.4558 17.125 33.4508 16.83 32.6808 16.24C31.9108 15.66 31.4708 14.87 31.3608 13.87H33.8958C33.9758 14.19 34.1658 14.44 34.4658 14.62C34.7658 14.81 35.1358 14.905 35.5758 14.905C36.1058 14.905 36.5258 14.75 36.8358 14.44C37.1558 14.14 37.3158 13.655 37.3158 12.985V11.8C37.0658 12.19 36.7208 12.51 36.2808 12.76C35.8408 13 35.3258 13.12 34.7358 13.12C34.0458 13.12 33.4208 12.945 32.8608 12.595C32.3008 12.235 31.8558 11.73 31.5258 11.08C31.2058 10.42 31.0458 9.66 31.0458 8.8C31.0458 7.94 31.2058 7.185 31.5258 6.535C31.8558 5.885 32.3008 5.385 32.8608 5.035C33.4208 4.685 34.0458 4.51 34.7358 4.51ZM37.3158 8.815C37.3158 8.175 37.1358 7.67 36.7758 7.3C36.4258 6.93 35.9958 6.745 35.4858 6.745C34.9758 6.745 34.5408 6.93 34.1808 7.3C33.8308 7.66 33.6558 8.16 33.6558 8.8C33.6558 9.44 33.8308 9.95 34.1808 10.33C34.5408 10.7 34.9758 10.885 35.4858 10.885C35.9958 10.885 36.4258 10.7 36.7758 10.33C37.1358 9.96 37.3158 9.455 37.3158 8.815ZM49.7764 8.68C49.7764 8.92 49.7614 9.17 49.7314 9.43H43.9264C43.9664 9.95 44.1314 10.35 44.4214 10.63C44.7214 10.9 45.0864 11.035 45.5164 11.035C46.1564 11.035 46.6014 10.765 46.8514 10.225H49.5814C49.4414 10.775 49.1864 11.27 48.8164 11.71C48.4564 12.15 48.0014 12.495 47.4514 12.745C46.9014 12.995 46.2864 13.12 45.6064 13.12C44.7864 13.12 44.0564 12.945 43.4164 12.595C42.7764 12.245 42.2764 11.745 41.9164 11.095C41.5564 10.445 41.3764 9.685 41.3764 8.815C41.3764 7.945 41.5514 7.185 41.9014 6.535C42.2614 5.885 42.7614 5.385 43.4014 5.035C44.0414 4.685 44.7764 4.51 45.6064 4.51C46.4164 4.51 47.1364 4.68 47.7664 5.02C48.3964 5.36 48.8864 5.845 49.2364 6.475C49.5964 7.105 49.7764 7.84 49.7764 8.68ZM47.1514 8.005C47.1514 7.565 47.0014 7.215 46.7014 6.955C46.4014 6.695 46.0264 6.565 45.5764 6.565C45.1464 6.565 44.7814 6.69 44.4814 6.94C44.1914 7.19 44.0114 7.545 43.9414 8.005H47.1514ZM55.9446 10.825V13H54.6396C53.7096 13 52.9846 12.775 52.4646 12.325C51.9446 11.865 51.6846 11.12 51.6846 10.09V6.76H50.6646V4.63H51.6846V2.59H54.2496V4.63H55.9296V6.76H54.2496V10.12C54.2496 10.37 54.3096 10.55 54.4296 10.66C54.5496 10.77 54.7496 10.825 55.0296 10.825H55.9446ZM68.9071 13L67.9321 12.055C66.9621 12.795 65.8021 13.165 64.4521 13.165C63.6421 13.165 62.9371 13.035 62.3371 12.775C61.7371 12.505 61.2721 12.13 60.9421 11.65C60.6221 11.16 60.4621 10.59 60.4621 9.94C60.4621 9.28 60.6371 8.685 60.9871 8.155C61.3471 7.615 61.8821 7.175 62.5921 6.835C62.3321 6.515 62.1471 6.21 62.0371 5.92C61.9271 5.62 61.8721 5.295 61.8721 4.945C61.8721 4.445 62.0021 3.99 62.2621 3.58C62.5221 3.17 62.8971 2.85 63.3871 2.62C63.8871 2.38 64.4771 2.26 65.1571 2.26C65.8471 2.26 66.4321 2.385 66.9121 2.635C67.3921 2.885 67.7521 3.22 67.9921 3.64C68.2321 4.06 68.3421 4.52 68.3221 5.02H65.9071C65.9171 4.75 65.8471 4.545 65.6971 4.405C65.5571 4.255 65.3671 4.18 65.1271 4.18C64.8871 4.18 64.6871 4.25 64.5271 4.39C64.3671 4.53 64.2871 4.71 64.2871 4.93C64.2871 5.14 64.3521 5.36 64.4821 5.59C64.6221 5.82 64.8371 6.085 65.1271 6.385L67.6921 8.89C67.7121 8.84 67.7371 8.78 67.7671 8.71C67.8071 8.64 67.8471 8.56 67.8871 8.47L68.4421 7.525H71.0071L70.2871 8.83C70.0171 9.42 69.7071 9.98 69.3571 10.51L71.8921 13H68.9071ZM64.5721 11.095C65.2421 11.095 65.8371 10.905 66.3571 10.525L64.0171 8.26C63.2971 8.63 62.9371 9.13 62.9371 9.76C62.9371 10.14 63.0821 10.46 63.3721 10.72C63.6721 10.97 64.0721 11.095 64.5721 11.095ZM84.3236 5.86C84.3236 6.47 84.1836 7.03 83.9036 7.54C83.6236 8.04 83.1936 8.445 82.6136 8.755C82.0336 9.065 81.3136 9.22 80.4536 9.22H78.8636V13H76.2986V2.47H80.4536C81.2936 2.47 82.0036 2.615 82.5836 2.905C83.1636 3.195 83.5986 3.595 83.8886 4.105C84.1786 4.615 84.3236 5.2 84.3236 5.86ZM80.2586 7.18C80.7486 7.18 81.1136 7.065 81.3536 6.835C81.5936 6.605 81.7136 6.28 81.7136 5.86C81.7136 5.44 81.5936 5.115 81.3536 4.885C81.1136 4.655 80.7486 4.54 80.2586 4.54H78.8636V7.18H80.2586ZM88.3739 1.9V13H85.8089V1.9H88.3739ZM89.8727 8.8C89.8727 7.94 90.0327 7.185 90.3527 6.535C90.6827 5.885 91.1277 5.385 91.6877 5.035C92.2477 4.685 92.8727 4.51 93.5627 4.51C94.1527 4.51 94.6677 4.63 95.1077 4.87C95.5577 5.11 95.9027 5.425 96.1427 5.815V4.63H98.7077V13H96.1427V11.815C95.8927 12.205 95.5427 12.52 95.0927 12.76C94.6527 13 94.1377 13.12 93.5477 13.12C92.8677 13.12 92.2477 12.945 91.6877 12.595C91.1277 12.235 90.6827 11.73 90.3527 11.08C90.0327 10.42 89.8727 9.66 89.8727 8.8ZM96.1427 8.815C96.1427 8.175 95.9627 7.67 95.6027 7.3C95.2527 6.93 94.8227 6.745 94.3127 6.745C93.8027 6.745 93.3677 6.93 93.0077 7.3C92.6577 7.66 92.4827 8.16 92.4827 8.8C92.4827 9.44 92.6577 9.95 93.0077 10.33C93.3677 10.7 93.8027 10.885 94.3127 10.885C94.8227 10.885 95.2527 10.7 95.6027 10.33C95.9627 9.96 96.1427 9.455 96.1427 8.815ZM105.813 4.54C106.793 4.54 107.573 4.86 108.153 5.5C108.743 6.13 109.038 7 109.038 8.11V13H106.488V8.455C106.488 7.895 106.343 7.46 106.053 7.15C105.763 6.84 105.373 6.685 104.883 6.685C104.393 6.685 104.003 6.84 103.713 7.15C103.423 7.46 103.278 7.895 103.278 8.455V13H100.713V4.63H103.278V5.74C103.538 5.37 103.888 5.08 104.328 4.87C104.768 4.65 105.263 4.54 105.813 4.54ZM116.071 4.54C117.051 4.54 117.831 4.86 118.411 5.5C119.001 6.13 119.296 7 119.296 8.11V13H116.746V8.455C116.746 7.895 116.601 7.46 116.311 7.15C116.021 6.84 115.631 6.685 115.141 6.685C114.651 6.685 114.261 6.84 113.971 7.15C113.681 7.46 113.536 7.895 113.536 8.455V13H110.971V4.63H113.536V5.74C113.796 5.37 114.146 5.08 114.586 4.87C115.026 4.65 115.521 4.54 116.071 4.54ZM122.518 3.76C122.068 3.76 121.698 3.63 121.408 3.37C121.128 3.1 120.988 2.77 120.988 2.38C120.988 1.98 121.128 1.65 121.408 1.39C121.698 1.12 122.068 0.984999 122.518 0.984999C122.958 0.984999 123.318 1.12 123.598 1.39C123.888 1.65 124.033 1.98 124.033 2.38C124.033 2.77 123.888 3.1 123.598 3.37C123.318 3.63 122.958 3.76 122.518 3.76ZM123.793 4.63V13H121.228V4.63H123.793ZM130.902 4.54C131.882 4.54 132.662 4.86 133.242 5.5C133.832 6.13 134.127 7 134.127 8.11V13H131.577V8.455C131.577 7.895 131.432 7.46 131.142 7.15C130.852 6.84 130.462 6.685 129.972 6.685C129.482 6.685 129.092 6.84 128.802 7.15C128.512 7.46 128.367 7.895 128.367 8.455V13H125.802V4.63H128.367V5.74C128.627 5.37 128.977 5.08 129.417 4.87C129.857 4.65 130.352 4.54 130.902 4.54ZM139.239 4.51C139.829 4.51 140.344 4.63 140.784 4.87C141.234 5.11 141.579 5.425 141.819 5.815V4.63H144.384V12.985C144.384 13.755 144.229 14.45 143.919 15.07C143.619 15.7 143.154 16.2 142.524 16.57C141.904 16.94 141.129 17.125 140.199 17.125C138.959 17.125 137.954 16.83 137.184 16.24C136.414 15.66 135.974 14.87 135.864 13.87H138.399C138.479 14.19 138.669 14.44 138.969 14.62C139.269 14.81 139.639 14.905 140.079 14.905C140.609 14.905 141.029 14.75 141.339 14.44C141.659 14.14 141.819 13.655 141.819 12.985V11.8C141.569 12.19 141.224 12.51 140.784 12.76C140.344 13 139.829 13.12 139.239 13.12C138.549 13.12 137.924 12.945 137.364 12.595C136.804 12.235 136.359 11.73 136.029 11.08C135.709 10.42 135.549 9.66 135.549 8.8C135.549 7.94 135.709 7.185 136.029 6.535C136.359 5.885 136.804 5.385 137.364 5.035C137.924 4.685 138.549 4.51 139.239 4.51ZM141.819 8.815C141.819 8.175 141.639 7.67 141.279 7.3C140.929 6.93 140.499 6.745 139.989 6.745C139.479 6.745 139.044 6.93 138.684 7.3C138.334 7.66 138.159 8.16 138.159 8.8C138.159 9.44 138.334 9.95 138.684 10.33C139.044 10.7 139.479 10.885 139.989 10.885C140.499 10.885 140.929 10.7 141.279 10.33C141.639 9.96 141.819 9.455 141.819 8.815Z" fill="#2D2C2C" fill-opacity="0.74"/>
</svg>
