<svg width="19" height="13" viewBox="0 0 19 13" fill="none" xmlns="http://www.w3.org/2000/svg">
<path d="M7.22206 9.12572H12.5252C12.6136 9.12572 12.6859 9.06796 12.6859 8.99736V7.64959C12.6859 7.57899 12.6136 7.52123 12.5252 7.52123H11.7217C11.6333 7.52123 11.561 7.57899 11.561 7.64959V8.22721H8.18627V7.64959C8.18627 7.57899 8.11395 7.52123 8.02557 7.52123H7.22206C7.13367 7.52123 7.06136 7.57899 7.06136 7.64959V8.99736C7.06136 9.06796 7.13367 9.12572 7.22206 9.12572ZM14.0519 7.1522C14.0519 7.32241 14.1365 7.48566 14.2872 7.60602C14.4379 7.72638 14.6423 7.79399 14.8554 7.79399C15.0685 7.79399 15.2729 7.72638 15.4236 7.60602C15.5742 7.48566 15.6589 7.32241 15.6589 7.1522C15.6589 6.98198 15.5742 6.81874 15.4236 6.69838C15.2729 6.57802 15.0685 6.5104 14.8554 6.5104C14.6423 6.5104 14.4379 6.57802 14.2872 6.69838C14.1365 6.81874 14.0519 6.98198 14.0519 7.1522ZM18.8528 4.46307L18.3768 3.79881C18.3554 3.76952 18.3203 3.74819 18.2793 3.73948C18.2383 3.73076 18.1946 3.73536 18.1578 3.75228L17.1394 4.22721L15.5665 0.758293C15.4835 0.551304 15.3202 0.370751 15.1003 0.242702C14.8804 0.114653 14.6153 0.0457353 14.3432 0.0458987H5.63915C4.9421 0.0458987 4.3234 0.405305 4.10846 0.936392L2.60992 4.22881L1.58946 3.75388C1.55267 3.73696 1.509 3.73236 1.46797 3.74108C1.42695 3.7498 1.39191 3.77113 1.37051 3.80041L0.894428 4.46307C0.850235 4.52404 0.87635 4.60105 0.952683 4.63635L2.16598 5.20113L1.87471 5.84293C1.8506 5.89427 1.83855 5.94883 1.83855 6.00338V11.5902C1.83855 11.8421 2.07559 12.0459 2.36686 12.0459H3.72479C3.97187 12.0459 4.18681 11.8967 4.23903 11.6881L4.39371 11.0832H15.3536L15.5082 11.6881C15.5625 11.8967 15.7754 12.0459 16.0225 12.0459H17.3804C17.6717 12.0459 17.9087 11.8421 17.9087 11.5902V6.00338C17.9087 5.94883 17.8967 5.89427 17.8726 5.84293L17.5813 5.20113L18.7926 4.63635C18.8291 4.61953 18.8558 4.59196 18.8671 4.55955C18.8783 4.52714 18.8732 4.4925 18.8528 4.46307ZM16.4624 6.12532V9.92797H3.28487V6.12532L3.59824 5.43539H16.149L16.4624 6.12532ZM5.4684 1.32949L5.47845 1.30863L5.48648 1.28778C5.50858 1.23483 5.56884 1.19953 5.63915 1.19953H14.2287L15.7433 4.53687H4.00802L5.4684 1.32949ZM4.08838 7.1522C4.08838 7.32241 4.17303 7.48566 4.32372 7.60602C4.4744 7.72638 4.67878 7.79399 4.89188 7.79399C5.10499 7.79399 5.30936 7.72638 5.46005 7.60602C5.61074 7.48566 5.69539 7.32241 5.69539 7.1522C5.69539 6.98198 5.61074 6.81874 5.46005 6.69838C5.30936 6.57802 5.10499 6.5104 4.89188 6.5104C4.67878 6.5104 4.4744 6.57802 4.32372 6.69838C4.17303 6.81874 4.08838 6.98198 4.08838 7.1522Z" fill="black" fill-opacity="0.46"/>
</svg>
