<svg width="30" height="30" viewBox="0 0 30 30" fill="none" xmlns="http://www.w3.org/2000/svg">
<path d="M11.25 18.75C7.9125 18.75 1.25 20.425 1.25 23.75V26.25H21.25V23.75C21.25 20.425 14.5875 18.75 11.25 18.75ZM3.75 23.75C4.025 22.85 7.8875 21.25 11.25 21.25C14.625 21.25 18.5 22.8625 18.75 23.75H3.75ZM5.925 11.25H6.25C6.25 14.0125 8.4875 16.25 11.25 16.25C14.0125 16.25 16.25 14.0125 16.25 11.25H16.575C16.9125 11.25 17.1875 10.975 17.1875 10.6375V10.6125C17.1875 10.4501 17.123 10.2943 17.0081 10.1794C16.8932 10.0645 16.7374 10 16.575 10H16.25C16.25 8.15 15.2375 6.5625 13.75 5.6875V6.875C13.75 7.225 13.475 7.5 13.125 7.5C12.775 7.5 12.5 7.225 12.5 6.875V5.175C12.1 5.075 11.6875 5 11.25 5C10.8125 5 10.4 5.075 10 5.175V6.875C10 7.225 9.725 7.5 9.375 7.5C9.025 7.5 8.75 7.225 8.75 6.875V5.6875C7.2625 6.5625 6.25 8.15 6.25 10H5.925C5.84456 10 5.76492 10.0158 5.69061 10.0466C5.61629 10.0774 5.54877 10.1225 5.4919 10.1794C5.43502 10.2363 5.3899 10.3038 5.35912 10.3781C5.32834 10.4524 5.3125 10.5321 5.3125 10.6125V10.65C5.3125 10.975 5.5875 11.25 5.925 11.25ZM13.75 11.25C13.75 12.625 12.625 13.75 11.25 13.75C9.875 13.75 8.75 12.625 8.75 11.25H13.75ZM27.475 7.7875L28.6375 6.75L27.7 5.125L26.2125 5.6125C26.0375 5.475 25.8375 5.3625 25.625 5.275L25.3125 3.75H23.4375L23.125 5.275C22.9125 5.3625 22.7125 5.475 22.525 5.6125L21.05 5.125L20.1125 6.75L21.275 7.7875C21.25 8 21.25 8.225 21.275 8.4375L20.1125 9.5L21.05 11.125L22.55 10.65C22.7125 10.775 22.9 10.875 23.0875 10.9625L23.4375 12.5H25.3125L25.65 10.975C25.85 10.8875 26.025 10.7875 26.2 10.6625L27.6875 11.1375L28.625 9.5125L27.4625 8.45C27.5 8.2125 27.4875 8 27.475 7.7875ZM24.375 9.6875C23.9606 9.6875 23.5632 9.52288 23.2701 9.22985C22.9771 8.93683 22.8125 8.5394 22.8125 8.125C22.8125 7.7106 22.9771 7.31317 23.2701 7.02015C23.5632 6.72712 23.9606 6.5625 24.375 6.5625C24.7894 6.5625 25.1868 6.72712 25.4799 7.02015C25.7729 7.31317 25.9375 7.7106 25.9375 8.125C25.9375 8.5394 25.7729 8.93683 25.4799 9.22985C25.1868 9.52288 24.7894 9.6875 24.375 9.6875ZM24.25 13.4875L23.1875 13.8375C23.0625 13.7375 22.925 13.6625 22.775 13.6L22.55 12.5H21.2125L20.9875 13.5875C20.8375 13.65 20.6875 13.7375 20.5625 13.825L19.5125 13.475L18.8375 14.6375L19.6625 15.375C19.65 15.5375 19.65 15.6875 19.6625 15.8375L18.8375 16.6L19.5125 17.7625L20.5875 17.425C20.7125 17.5125 20.8375 17.5875 20.975 17.65L21.2 18.75H22.5375L22.775 17.6625C22.9125 17.6 23.05 17.525 23.175 17.4375L24.2375 17.775L24.9125 16.6125L24.0875 15.85C24.1 15.6875 24.1 15.5375 24.0875 15.3875L24.9125 14.65L24.25 13.4875ZM21.875 16.7375C21.2625 16.7375 20.7625 16.2375 20.7625 15.625C20.7625 15.0125 21.2625 14.5125 21.875 14.5125C22.4875 14.5125 22.9875 15.0125 22.9875 15.625C22.9875 16.2375 22.4875 16.7375 21.875 16.7375Z" fill="#D7B569"/>
</svg>
