<svg width="30" height="30" viewBox="0 0 30 30" fill="none" xmlns="http://www.w3.org/2000/svg">
<path d="M3.75 18.75V20.625H8.04938L1.875 26.7994L3.20063 28.125L9.375 21.9506V26.25H11.25V18.75H3.75ZM22.5 19.6875H24.375V24.375H22.5V19.6875ZM18.75 15H20.625V24.375H18.75V15ZM15 16.875H16.875V24.375H15V16.875Z" fill="#D7B569"/>
<path d="M26.25 1.875H3.75C3.25287 1.8755 2.77625 2.0732 2.42472 2.42472C2.0732 2.77625 1.8755 3.25287 1.875 3.75V15H3.75V12.1875H26.2509L26.2519 26.25H15V28.125H26.25C26.7471 28.1243 27.2235 27.9265 27.575 27.575C27.9265 27.2235 28.1243 26.7471 28.125 26.25V3.75C28.1245 3.25287 27.9268 2.77625 27.5753 2.42472C27.2238 2.0732 26.7471 1.8755 26.25 1.875ZM11.25 10.3125H3.75V3.75H11.25V10.3125ZM13.125 10.3125V3.75H26.25V10.3125H13.125Z" fill="#D7B569"/>
</svg>
