<svg width="120" height="130" viewBox="0 0 120 130" fill="none" xmlns="http://www.w3.org/2000/svg">
<path d="M114.581 13.3164H70.853V1.50293H62.7016L0 13.3459V116.683L62.3337 128.497H70.853V116.727H111.772C114.09 116.609 116.666 116.801 118.656 115.266C120.251 112.622 119.842 109.315 119.978 106.332V19.0458C120.264 15.679 117.688 12.9767 114.581 13.3164ZM45.4723 85.0678C43.196 86.3526 39.7882 85.0086 37.0894 85.2153C35.2765 75.4399 33.1636 65.7234 31.5417 55.9036C29.9468 65.4429 27.8749 74.8933 26.0484 84.3736C23.4314 84.2261 20.8008 84.0486 18.1699 83.8569C15.907 70.862 13.2492 57.9559 11.1363 44.9318C13.4672 44.8138 15.8116 44.7104 18.1425 44.6218C19.5464 54.0283 21.1413 63.3903 22.3683 72.8115C24.2902 63.1539 26.2528 53.4966 28.1613 43.8393C30.7512 43.6768 33.341 43.5587 35.9309 43.4109C37.7437 53.3785 39.5974 63.3311 41.5603 73.2543C43.1006 63.0064 44.8043 52.7877 46.4538 42.5545C49.1798 42.4512 51.9061 42.2887 54.6185 42.1114C51.5381 56.4203 48.8391 70.8475 45.4723 85.0678ZM113.491 109.714H70.853V100.44H106.293V94.5332H70.853V87.1498H106.293V81.2432H70.853V73.8596H106.293V67.9532H70.853V60.5697H106.293V54.6633H70.853V47.2797H106.293V41.3731H70.853V33.9897H106.293V28.0831H70.853V20.2856H113.491V109.714Z" fill="#699BF7"/>
</svg>
