<svg width="25" height="25" viewBox="0 0 25 25" fill="none" xmlns="http://www.w3.org/2000/svg">
<g clip-path="url(#clip0_84_431)">
<path d="M12.4999 6.37847L3.01512 14.7444C2.9448 14.8077 2.85496 14.8372 2.7777 14.8898V22.9167C2.7777 23.3003 3.08847 23.6111 3.47215 23.6111H9.94914L8.33326 20.451L12.8519 17.6732L10.2408 12.4987L16.6666 18.4353L12.1479 21.2131L13.8806 23.6111H21.5277C21.9114 23.6111 22.2221 23.3003 22.2221 22.9167V14.8915C22.1484 14.8411 22.0607 14.8125 21.9938 14.7526L12.4999 6.37847ZM24.7695 11.6441L22.2221 9.39453V3.47222C22.2221 3.08854 21.9114 2.77778 21.5277 2.77778H18.7499C18.3662 2.77778 18.0555 3.08854 18.0555 3.47222V5.71571L13.6609 1.83637C13.3298 1.53863 12.9149 1.38932 12.4999 1.38889C12.085 1.38846 11.6709 1.53689 11.3411 1.83464L0.230393 11.6441C-0.0547635 11.9006 -0.078635 12.3394 0.177875 12.625L1.10669 13.6589C1.36277 13.944 1.80201 13.9679 2.0876 13.7114L12.0407 4.93186C12.3033 4.70052 12.697 4.70052 12.9596 4.93186L22.9127 13.7109C23.1978 13.967 23.6371 13.9436 23.8936 13.6584L24.8224 12.6246C25.0785 12.3394 25.055 11.9002 24.7695 11.6441Z" fill="#CCCCCC"/>
</g>
<defs>
<clipPath id="clip0_84_431">
<rect width="25" height="25" fill="white"/>
</clipPath>
</defs>
</svg>
