<svg width="19" height="13" viewBox="0 0 19 13" fill="none" xmlns="http://www.w3.org/2000/svg">
<path d="M14.675 5.51V4.7C14.675 3.704 13.469 2.9 11.975 2.9H7.025C5.531 2.9 4.325 3.704 4.325 4.7V5.51C3.659 5.768 3.2 6.248 3.2 6.8V8.9C3.2 9.56 4.01 10.1 5 10.1H14C14.99 10.1 15.8 9.56 15.8 8.9V6.8C15.8 6.248 15.341 5.768 14.675 5.51ZM7.025 3.8H11.975C12.722 3.8 13.325 4.202 13.325 4.7V5.318C12.7712 5.35239 12.2565 5.52341 11.882 5.79754C11.5074 6.07168 11.2998 6.42918 11.3 6.8V7.1H7.7V6.8C7.7 6.02 6.809 5.39 5.675 5.318V4.7C5.675 4.202 6.278 3.8 7.025 3.8ZM14.45 8.9C14.45 9.068 14.252 9.2 14 9.2H5C4.748 9.2 4.55 9.068 4.55 8.9V6.8C4.55 6.47 4.955 6.2 5.45 6.2C5.945 6.2 6.35 6.47 6.35 6.8V8H12.65V6.8C12.65 6.47 13.055 6.2 13.55 6.2C14.045 6.2 14.45 6.47 14.45 6.8V8.9ZM16.7 1.7V11.3H2.3V1.7H16.7ZM16.7 0.5H2.3C1.31 0.5 0.5 1.04 0.5 1.7V11.3C0.5 11.96 1.31 12.5 2.3 12.5H16.7C17.69 12.5 18.5 11.96 18.5 11.3V1.7C18.5 1.04 17.69 0.5 16.7 0.5Z" fill="black" fill-opacity="0.46"/>
</svg>
