<svg width="30" height="30" viewBox="0 0 30 30" fill="none" xmlns="http://www.w3.org/2000/svg">
<path d="M8.75 26.25C7.70833 26.25 6.82292 25.8854 6.09375 25.1562C5.36458 24.4271 5 23.5417 5 22.5H3.75C3.0625 22.5 2.47417 22.2554 1.985 21.7663C1.495 21.2763 1.25 20.6875 1.25 20V16.25C1.25 15.5625 1.495 14.9738 1.985 14.4837C2.47417 13.9946 3.0625 13.75 3.75 13.75H15V8.75C15 8.0625 15.245 7.47417 15.735 6.985C16.2242 6.495 16.8125 6.25 17.5 6.25H20V5C20 4.64583 20.12 4.34875 20.36 4.10875C20.5992 3.86958 20.8958 3.75 21.25 3.75H22.5C22.8542 3.75 23.1508 3.86958 23.39 4.10875C23.63 4.34875 23.75 4.64583 23.75 5V6.25H24.4375C24.9792 6.25 25.4688 6.40625 25.9063 6.71875C26.3438 7.03125 26.6458 7.44792 26.8125 7.96875L28.625 13.3438C28.6667 13.4688 28.6979 13.5988 28.7188 13.7338C28.7396 13.8696 28.75 14.0104 28.75 14.1562V20C28.75 20.6875 28.5054 21.2763 28.0163 21.7663C27.5263 22.2554 26.9375 22.5 26.25 22.5H25C25 23.5417 24.6354 24.4271 23.9063 25.1562C23.1771 25.8854 22.2917 26.25 21.25 26.25C20.2083 26.25 19.3229 25.8854 18.5938 25.1562C17.8646 24.4271 17.5 23.5417 17.5 22.5H12.5C12.5 23.5417 12.1354 24.4271 11.4063 25.1562C10.6771 25.8854 9.79167 26.25 8.75 26.25ZM8.75 23.75C9.10417 23.75 9.40125 23.63 9.64125 23.39C9.88042 23.1508 10 22.8542 10 22.5C10 22.1458 9.88042 21.8492 9.64125 21.61C9.40125 21.37 9.10417 21.25 8.75 21.25C8.39583 21.25 8.09875 21.37 7.85875 21.61C7.61958 21.8492 7.5 22.1458 7.5 22.5C7.5 22.8542 7.61958 23.1508 7.85875 23.39C8.09875 23.63 8.39583 23.75 8.75 23.75ZM21.25 23.75C21.6042 23.75 21.9008 23.63 22.14 23.39C22.38 23.1508 22.5 22.8542 22.5 22.5C22.5 22.1458 22.38 21.8492 22.14 21.61C21.9008 21.37 21.6042 21.25 21.25 21.25C20.8958 21.25 20.5992 21.37 20.36 21.61C20.12 21.8492 20 22.1458 20 22.5C20 22.8542 20.12 23.1508 20.36 23.39C20.5992 23.63 20.8958 23.75 21.25 23.75ZM15 20V16.25H3.75V20H5.96875C6.32292 19.6042 6.73958 19.2967 7.21875 19.0775C7.69792 18.8592 8.20833 18.75 8.75 18.75C9.29167 18.75 9.80208 18.8592 10.2813 19.0775C10.7604 19.2967 11.1771 19.6042 11.5313 20H15ZM17.5 20H18.4688C18.8229 19.6042 19.2396 19.2967 19.7188 19.0775C20.1979 18.8592 20.7083 18.75 21.25 18.75C21.7917 18.75 22.3021 18.8592 22.7813 19.0775C23.2604 19.2967 23.6771 19.6042 24.0313 20H26.25V16.25H17.5V20ZM17.5 13.75H26.125L24.4375 8.75H17.5V13.75ZM2.1875 12.5C1.91667 12.5 1.6925 12.4112 1.515 12.2337C1.33833 12.0571 1.25 11.8333 1.25 11.5625C1.25 11.2917 1.33833 11.0675 1.515 10.89C1.6925 10.7133 1.91667 10.625 2.1875 10.625H2.5V8.125H2.1875C1.91667 8.125 1.6925 8.03625 1.515 7.85875C1.33833 7.68208 1.25 7.45833 1.25 7.1875C1.25 6.91667 1.33833 6.69292 1.515 6.51625C1.6925 6.33875 1.91667 6.25 2.1875 6.25H12.8125C13.0833 6.25 13.3075 6.33875 13.485 6.51625C13.6617 6.69292 13.75 6.91667 13.75 7.1875C13.75 7.45833 13.6617 7.68208 13.485 7.85875C13.3075 8.03625 13.0833 8.125 12.8125 8.125H12.5V10.625H12.8125C13.0833 10.625 13.3075 10.7133 13.485 10.89C13.6617 11.0675 13.75 11.2917 13.75 11.5625C13.75 11.8333 13.6617 12.0571 13.485 12.2337C13.3075 12.4112 13.0833 12.5 12.8125 12.5H2.1875ZM4.375 10.625H6.5625V8.125H4.375V10.625ZM8.4375 10.625H10.625V8.125H8.4375V10.625ZM15 16.25H3.75H15ZM17.5 16.25H26.25H17.5Z" fill="#D7B569"/>
</svg>
