<svg width="150" height="150" viewBox="0 0 150 150" fill="none" xmlns="http://www.w3.org/2000/svg">
<path d="M112.969 9.7124L139.05 36.8999V140.287H41.6201V140.625H139.383V37.2421L112.969 9.7124Z" fill="#909090"/>
<path d="M112.645 9.375H41.2876V140.288H139.05V36.9047L112.641 9.375" fill="#F4F4F4"/>
<path d="M40.5703 16.4062H10.6172V48.4078H104.836V16.4062H40.5703Z" fill="#7A7B7C"/>
<path d="M105.338 47.8639H11.2266V15.8389H105.338V47.8639Z" fill="#DD2025"/>
<path d="M42.4313 21.2531H36.3047V43.7531H41.1234V36.164L42.1875 36.225C43.2214 36.2072 44.2456 36.022 45.2203 35.6765C46.0749 35.3826 46.861 34.9186 47.5313 34.3125C48.2133 33.7351 48.751 33.0063 49.1016 32.1844C49.5717 30.8179 49.7396 29.3658 49.5938 27.9281C49.5645 26.9011 49.3844 25.884 49.0594 24.9094C48.7635 24.2058 48.3243 23.5715 47.7699 23.047C47.2155 22.5224 46.5579 22.119 45.8391 21.8625C45.2175 21.6375 44.5754 21.4742 43.9219 21.375C43.427 21.2986 42.9273 21.2579 42.4266 21.2531M41.5406 32.0062H41.1234V25.0687H42.0281C42.4274 25.0399 42.8281 25.1012 43.2005 25.2481C43.5729 25.3949 43.9075 25.6236 44.1797 25.9172C44.7437 26.6719 45.045 27.5906 45.0375 28.5328C45.0375 29.6859 45.0375 30.7312 43.9969 31.4672C43.2472 31.8795 42.3939 32.0651 41.5406 32.0015M58.7484 21.1922C58.2281 21.1922 57.7219 21.2297 57.3656 21.2437L56.25 21.2719H52.5938V43.7719H56.8969C58.5414 43.8169 60.1787 43.5382 61.7156 42.9515C62.9527 42.4609 64.0482 41.6699 64.9031 40.65C65.7345 39.6209 66.3312 38.4227 66.6516 37.139C67.0198 35.6853 67.1994 34.1902 67.1859 32.6906C67.2769 30.9195 67.1398 29.144 66.7781 27.4078C66.4349 26.1298 65.7922 24.952 64.9031 23.9719C64.2056 23.1804 63.3517 22.542 62.3953 22.0969C61.574 21.7168 60.71 21.4366 59.8219 21.2625C59.4687 21.2041 59.111 21.1775 58.7531 21.1828M57.9 39.6375H57.4312V25.275H57.4922C58.4586 25.1638 59.4363 25.3382 60.3047 25.7765C60.9406 26.2843 61.4588 26.924 61.8234 27.6515C62.217 28.4172 62.4438 29.2575 62.4891 30.1172C62.5313 31.1484 62.4891 31.9922 62.4891 32.6906C62.5082 33.4952 62.4564 34.2998 62.3344 35.0953C62.1899 35.912 61.9228 36.7022 61.5422 37.439C61.1114 38.1241 60.5293 38.7014 59.8406 39.1265C59.2623 39.5006 58.5774 39.6751 57.8906 39.6234M81.7031 21.2719H70.3125V43.7719H75.1312V34.8469H81.225V30.6656H75.1312V25.4531H81.6937V21.2719" fill="#464648"/>
<path d="M102.098 94.9453C102.098 94.9453 117.042 92.236 117.042 97.3407C117.042 102.445 107.784 100.369 102.098 94.9453ZM91.0498 95.3344C88.6755 95.859 86.3617 96.6271 84.1451 97.6266L86.0201 93.4078C87.8951 89.1891 89.8404 83.4375 89.8404 83.4375C92.0778 87.2031 94.681 90.739 97.6123 93.9938C95.4017 94.3234 93.2109 94.7741 91.0498 95.3438V95.3344ZM85.1341 64.8656C85.1341 60.4172 86.5732 59.2031 87.6935 59.2031C88.8138 59.2031 90.0748 59.7422 90.117 63.6047C89.752 67.4886 88.9387 71.3172 87.6935 75.0141C85.9878 71.9102 85.1051 68.4213 85.1295 64.8797L85.1341 64.8656ZM63.342 114.159C58.7576 111.417 72.956 102.975 75.5295 102.703C75.5154 102.708 68.142 117.028 63.342 114.159ZM121.406 97.9453C121.359 97.4766 120.937 92.2875 111.703 92.5078C107.854 92.4458 104.007 92.7171 100.204 93.3188C96.5213 89.6082 93.3496 85.4228 90.7732 80.8735C92.3964 76.1833 93.3787 71.2953 93.6935 66.3422C93.5576 60.7172 92.2123 57.4922 87.8998 57.5391C83.5873 57.586 82.9591 61.3594 83.5263 66.975C84.0819 70.7487 85.1299 74.4332 86.6435 77.9344C86.6435 77.9344 84.6513 84.136 82.017 90.3047C79.3826 96.4735 77.5826 99.7078 77.5826 99.7078C73.0016 101.199 68.6892 103.415 64.8092 106.27C60.9467 109.866 59.3763 112.627 61.4107 115.388C63.1638 117.769 69.2998 118.308 74.7842 111.122C77.6982 107.41 80.3604 103.508 82.7529 99.4407C82.7529 99.4407 91.1154 97.1485 93.717 96.5203C96.3185 95.8922 99.4638 95.3953 99.4638 95.3953C99.4638 95.3953 107.1 103.078 114.464 102.806C121.828 102.534 121.472 98.4047 121.425 97.9547" fill="#DD2025"/>
<path d="M112.284 9.73584V37.2655H138.689L112.284 9.73584Z" fill="#909090"/>
<path d="M112.646 9.375V36.9047H139.05L112.646 9.375Z" fill="#F4F4F4"/>
<path d="M42.0704 20.8923H35.9438V43.3923H40.7813V35.8079L41.8501 35.8688C42.884 35.851 43.9082 35.6658 44.8829 35.3204C45.7374 35.0264 46.5235 34.5623 47.1938 33.9563C47.8708 33.3774 48.4036 32.6488 48.7501 31.8282C49.2202 30.4618 49.3882 29.0096 49.2423 27.572C49.213 26.545 49.033 25.5278 48.7079 24.5532C48.412 23.8496 47.9729 23.2154 47.4184 22.6908C46.864 22.1663 46.2064 21.7629 45.4876 21.5063C44.8632 21.2791 44.2179 21.1143 43.561 21.0141C43.0662 20.9378 42.5664 20.8971 42.0657 20.8923M41.1798 31.6454H40.7626V24.7079H41.672C42.0713 24.6791 42.4719 24.7404 42.8443 24.8872C43.2167 25.0341 43.5514 25.2628 43.8235 25.5563C44.3875 26.3111 44.6888 27.2298 44.6813 28.172C44.6813 29.3251 44.6813 30.3704 43.6407 31.1063C42.891 31.5187 42.0377 31.7043 41.1845 31.6407M58.3876 20.8313C57.8673 20.8313 57.361 20.8688 57.0048 20.8829L55.9032 20.911H52.247V43.411H56.5501C58.1946 43.4561 59.8319 43.1774 61.3688 42.5907C62.6059 42.1 63.7014 41.309 64.5563 40.2891C65.3877 39.26 65.9844 38.0618 66.3048 36.7782C66.673 35.3245 66.8526 33.8294 66.8392 32.3298C66.9301 30.5586 66.793 28.7832 66.4313 27.047C66.0881 25.769 65.4454 24.5911 64.5563 23.611C63.8588 22.8196 63.005 22.1812 62.0485 21.736C61.2272 21.3559 60.3632 21.0758 59.4751 20.9016C59.1219 20.8433 58.7643 20.8166 58.4063 20.822M57.5532 39.2766H57.0845V24.9141H57.1454C58.1118 24.803 59.0896 24.9773 59.9579 25.4157C60.5938 25.9235 61.112 26.5632 61.4767 27.2907C61.8702 28.0563 62.0971 28.8967 62.1423 29.7563C62.1845 30.7876 62.1423 31.6313 62.1423 32.3298C62.1614 33.1343 62.1096 33.939 61.9876 34.7345C61.8431 35.5512 61.576 36.3413 61.1954 37.0782C60.7646 37.7633 60.1825 38.3406 59.4938 38.7657C58.9155 39.1398 58.2307 39.3143 57.5438 39.2626M81.3423 20.911H69.9517V43.411H74.7704V34.486H80.8642V30.3048H74.7704V25.0923H81.3329V20.911" fill="white"/>
</svg>
