<svg width="50" height="50" viewBox="0 0 50 50" fill="none" xmlns="http://www.w3.org/2000/svg">
<path d="M37.6563 3.23749L46.3501 12.3V46.7625H13.8735V46.875H46.461V12.4141L37.6563 3.23749Z" fill="#909090"/>
<path d="M37.5484 3.125H13.7625V46.7625H46.3499V12.3016L37.5468 3.125" fill="#F4F4F4"/>
<path d="M13.5234 5.46875H3.53906V16.1359H34.9453V5.46875H13.5234Z" fill="#7A7B7C"/>
<path d="M35.1125 15.9547H3.74219V5.27969H35.1125V15.9547Z" fill="#DD2025"/>
<path d="M14.1438 7.08439H12.1016V14.5844H13.7078V12.0547L14.0625 12.075C14.4071 12.0691 14.7485 12.0073 15.0734 11.8922C15.3583 11.7942 15.6203 11.6396 15.8438 11.4375C16.0711 11.245 16.2503 11.0021 16.3672 10.7281C16.5239 10.2727 16.5799 9.78861 16.5312 9.30939C16.5215 8.96706 16.4615 8.62802 16.3531 8.30314C16.2545 8.06862 16.1081 7.8572 15.9233 7.68235C15.7385 7.50749 15.5193 7.37303 15.2797 7.28751C15.0725 7.21251 14.8585 7.15808 14.6406 7.12501C14.4757 7.09956 14.3091 7.08599 14.1422 7.08439M13.8469 10.6688H13.7078V8.35626H14.0094C14.1425 8.34667 14.276 8.3671 14.4002 8.41605C14.5243 8.465 14.6358 8.54122 14.7266 8.63908C14.9146 8.89066 15.015 9.19689 15.0125 9.51095C15.0125 9.89533 15.0125 10.2438 14.6656 10.4891C14.4157 10.6265 14.1313 10.6884 13.8469 10.6672M19.5828 7.06408C19.4094 7.06408 19.2406 7.07658 19.1219 7.08126L18.75 7.09064H17.5312V14.5906H18.9656C19.5138 14.6057 20.0596 14.5128 20.5719 14.3172C20.9842 14.1536 21.3494 13.89 21.6344 13.55C21.9115 13.207 22.1104 12.8076 22.2172 12.3797C22.3399 11.8951 22.3998 11.3968 22.3953 10.8969C22.4256 10.3065 22.3799 9.71468 22.2594 9.13595C22.145 8.70996 21.9307 8.31735 21.6344 7.99064C21.4019 7.72683 21.1172 7.51403 20.7984 7.36564C20.5247 7.23895 20.2367 7.14557 19.9406 7.08751C19.8229 7.06807 19.7037 7.05918 19.5844 7.06095M19.3 13.2125H19.1437V8.42501H19.1641C19.4862 8.38795 19.8121 8.44607 20.1016 8.5922C20.3135 8.76146 20.4863 8.9747 20.6078 9.2172C20.739 9.47241 20.8146 9.75252 20.8297 10.0391C20.8438 10.3828 20.8297 10.6641 20.8297 10.8969C20.836 11.1651 20.8188 11.4333 20.7781 11.6985C20.73 11.9707 20.6409 12.2341 20.5141 12.4797C20.3705 12.7081 20.1764 12.9005 19.9469 13.0422C19.7541 13.1669 19.5258 13.2251 19.2969 13.2078M27.2344 7.09064H23.4375V14.5906H25.0437V11.6156H27.075V10.2219H25.0437V8.48439H27.2312V7.09064" fill="#464648"/>
<path d="M34.0328 31.6484C34.0328 31.6484 39.0141 30.7453 39.0141 32.4469C39.0141 34.1484 35.9281 33.4562 34.0328 31.6484ZM30.35 31.7781C29.5586 31.953 28.7873 32.209 28.0484 32.5422L28.6734 31.1359C29.2984 29.7297 29.9469 27.8125 29.9469 27.8125C30.6927 29.0677 31.5604 30.2463 32.5375 31.3312C31.8007 31.4411 31.0704 31.5913 30.35 31.7812V31.7781ZM28.3781 21.6219C28.3781 20.139 28.8578 19.7344 29.2313 19.7344C29.6047 19.7344 30.025 19.914 30.0391 21.2015C29.9174 22.4962 29.6463 23.7724 29.2313 25.0047C28.6627 23.97 28.3685 22.8071 28.3766 21.6265L28.3781 21.6219ZM21.1141 38.0531C19.5859 37.139 24.3188 34.325 25.1766 34.2344C25.1719 34.2359 22.7141 39.0094 21.1141 38.0531ZM40.4688 32.6484C40.4531 32.4922 40.3125 30.7625 37.2344 30.8359C35.9514 30.8152 34.669 30.9057 33.4016 31.1062C32.1739 29.8694 31.1166 28.4742 30.2578 26.9578C30.7989 25.3944 31.1263 23.7651 31.2313 22.114C31.1859 20.239 30.7375 19.164 29.3 19.1797C27.8625 19.1953 27.6531 20.4531 27.8422 22.325C28.0274 23.5829 28.3767 24.811 28.8813 25.9781C28.8813 25.9781 28.2172 28.0453 27.3391 30.1015C26.4609 32.1578 25.8609 33.2359 25.8609 33.2359C24.334 33.733 22.8965 34.4715 21.6031 35.4234C20.3156 36.6219 19.7922 37.5422 20.4703 38.4625C21.0547 39.2562 23.1 39.4359 24.9281 37.0406C25.8995 35.8034 26.7869 34.5026 27.5844 33.1469C27.5844 33.1469 30.3719 32.3828 31.2391 32.1734C32.1063 31.964 33.1547 31.7984 33.1547 31.7984C33.1547 31.7984 35.7 34.3594 38.1547 34.2687C40.6094 34.1781 40.4906 32.8015 40.475 32.6515" fill="#DD2025"/>
<path d="M37.4282 3.2453V12.4219H46.2298L37.4282 3.2453Z" fill="#909090"/>
<path d="M37.5483 3.125V12.3016H46.3499L37.5483 3.125Z" fill="#F4F4F4"/>
<path d="M14.0234 6.96406H11.9812V14.4641H13.5937V11.9359L13.95 11.9562C14.2946 11.9503 14.636 11.8886 14.9609 11.7734C15.2457 11.6754 15.5078 11.5208 15.7312 11.3187C15.9568 11.1258 16.1344 10.8829 16.2499 10.6094C16.4067 10.1539 16.4626 9.66984 16.414 9.19062C16.4043 8.84829 16.3442 8.50925 16.2359 8.18437C16.1373 7.94985 15.9909 7.73843 15.8061 7.56358C15.6213 7.38872 15.4021 7.25426 15.1625 7.16875C14.9543 7.09301 14.7392 7.03806 14.5203 7.00468C14.3553 6.97923 14.1887 6.96565 14.0218 6.96406M13.7265 10.5484H13.5875V8.23593H13.8906C14.0237 8.22634 14.1572 8.24677 14.2814 8.29572C14.4055 8.34467 14.517 8.42089 14.6078 8.51875C14.7958 8.77033 14.8962 9.07656 14.8937 9.39062C14.8937 9.775 14.8937 10.1234 14.5468 10.3687C14.2969 10.5062 14.0125 10.5681 13.7281 10.5469M19.4625 6.94375C19.289 6.94375 19.1203 6.95625 19.0015 6.96093L18.6343 6.97031H17.4156V14.4703H18.85C19.3981 14.4853 19.9439 14.3924 20.4562 14.1969C20.8686 14.0333 21.2337 13.7697 21.5187 13.4297C21.7958 13.0866 21.9947 12.6872 22.1015 12.2594C22.2243 11.7748 22.2841 11.2764 22.2796 10.7766C22.3099 10.1862 22.2643 9.59435 22.1437 9.01562C22.0293 8.58963 21.815 8.19702 21.5187 7.87031C21.2862 7.6065 21.0016 7.3937 20.6828 7.24531C20.409 7.11862 20.121 7.02524 19.8249 6.96718C19.7072 6.94774 19.588 6.93885 19.4687 6.94062M19.1843 13.0922H19.0281V8.30468H19.0484C19.3705 8.26762 19.6964 8.32574 19.9859 8.47187C20.1979 8.64113 20.3706 8.85437 20.4921 9.09687C20.6233 9.35208 20.6989 9.63219 20.714 9.91875C20.7281 10.2625 20.714 10.5437 20.714 10.7766C20.7204 11.0447 20.7031 11.313 20.6624 11.5781C20.6143 11.8504 20.5253 12.1137 20.3984 12.3594C20.2548 12.5877 20.0608 12.7802 19.8312 12.9219C19.6384 13.0466 19.4101 13.1047 19.1812 13.0875M27.114 6.97031H23.3171V14.4703H24.9234V11.4953H26.9546V10.1016H24.9234V8.36406H27.1109V6.97031" fill="white"/>
</svg>
