<svg width="23" height="23" viewBox="0 0 23 23" fill="none" xmlns="http://www.w3.org/2000/svg">
<path d="M21.2603 9.50659H14.229V2.47534C14.229 1.61255 13.5293 0.912842 12.6665 0.912842H11.104C10.2412 0.912842 9.5415 1.61255 9.5415 2.47534V9.50659H2.51025C1.64746 9.50659 0.947754 10.2063 0.947754 11.0691V12.6316C0.947754 13.4944 1.64746 14.1941 2.51025 14.1941H9.5415V21.2253C9.5415 22.0881 10.2412 22.7878 11.104 22.7878H12.6665C13.5293 22.7878 14.229 22.0881 14.229 21.2253V14.1941H21.2603C22.123 14.1941 22.8228 13.4944 22.8228 12.6316V11.0691C22.8228 10.2063 22.123 9.50659 21.2603 9.50659Z" fill="#40A74E"/>
</svg>
