<svg width="18" height="16" viewBox="0 0 18 16" fill="none" xmlns="http://www.w3.org/2000/svg">
<path d="M17.55 13.5883H17.1C16.3676 13.5883 15.8119 13.2921 15.5225 12.9585C15.2722 12.6697 14.9695 12.4624 14.6289 12.4624H14.1705C13.8299 12.4624 13.5273 12.6697 13.277 12.9585C12.9881 13.2921 12.4324 13.5883 11.7 13.5883C10.9676 13.5883 10.4119 13.2921 10.1225 12.9585C9.87216 12.6697 9.56953 12.4624 9.22894 12.4624H8.7705C8.42991 12.4624 8.12728 12.6697 7.87697 12.9585C7.58813 13.2921 7.03238 13.5883 6.3 13.5883C5.56763 13.5883 5.01188 13.2921 4.72247 12.9585C4.47216 12.6697 4.16953 12.4624 3.82894 12.4624H3.3705C3.02991 12.4624 2.72728 12.6697 2.47697 12.9585C2.18813 13.2921 1.63238 13.5883 0.9 13.5883H0.45C0.201375 13.5883 0 13.8402 0 14.1513V15.2772C0 15.5882 0.201375 15.8401 0.45 15.8401H0.9C1.98619 15.8401 2.94525 15.4112 3.6 14.7199C4.25475 15.4116 5.21381 15.8401 6.3 15.8401C7.38619 15.8401 8.34525 15.4112 9 14.7199C9.65475 15.4116 10.6138 15.8401 11.7 15.8401C12.7862 15.8401 13.7453 15.4112 14.4 14.7199C15.0548 15.4116 16.0138 15.8401 17.1 15.8401H17.55C17.7986 15.8401 18 15.5882 18 15.2772V14.1513C18 13.8402 17.7986 13.5883 17.55 13.5883ZM6.3 12.4624V9.08477H11.7V12.4624C12.2378 12.4624 12.5679 12.2457 12.6672 12.131C12.9251 11.8333 13.2072 11.6265 13.5 11.4952V3.45531C13.5 2.83466 13.9039 2.32942 14.4 2.32942C14.8961 2.32942 15.3 2.83466 15.3 3.45531V4.01826C15.3 4.32928 15.5014 4.5812 15.75 4.5812H16.65C16.8986 4.5812 17.1 4.32928 17.1 4.01826V3.45531C17.1 1.59266 15.8889 0.0776367 14.4 0.0776367C12.9111 0.0776367 11.7 1.59266 11.7 3.45531V6.83298H6.3V3.45531C6.3 2.83466 6.70388 2.32942 7.2 2.32942C7.69613 2.32942 8.1 2.83466 8.1 3.45531V4.01826C8.1 4.32928 8.30138 4.5812 8.55 4.5812H9.45C9.69863 4.5812 9.9 4.32928 9.9 4.01826V3.45531C9.9 1.59266 8.68894 0.0776367 7.2 0.0776367C5.71106 0.0776367 4.5 1.59266 4.5 3.45531V11.4949C4.79278 11.6261 5.07488 11.8333 5.33278 12.1307C5.43206 12.2457 5.76225 12.4624 6.3 12.4624Z" fill="black" fill-opacity="0.46"/>
</svg>
