<svg width="30" height="30" viewBox="0 0 30 30" fill="none" xmlns="http://www.w3.org/2000/svg">
<g clip-path="url(#clip0_733_410)">
<path d="M5.14219 25.2026C5.59316 25.2026 5.95875 24.9533 5.95875 24.6457C5.95875 24.3382 5.59316 24.0889 5.14219 24.0889C4.69121 24.0889 4.32562 24.3382 4.32562 24.6457C4.32562 24.9533 4.69121 25.2026 5.14219 25.2026Z" fill="black" fill-opacity="0.46"/>
<path d="M29.0625 21.8761L28.7559 21.6961C28.7325 21.6825 26.3902 20.2927 25.808 18.6061L25.6781 18.2325L25.4381 18.5461C25.4306 18.5559 25.0978 18.9675 24.1664 19.4503C23.4769 15.5255 21.1313 10.8398 18.0487 8.84203C18.93 8.91328 19.8141 8.84016 20.6672 8.52984C21.1809 8.34328 20.9592 7.50609 20.4408 7.69547C19.7414 7.95 19.0406 8.01937 18.3412 7.98375C20.0583 6.41016 21.4064 3.99844 21.4064 2.235C21.4064 1.81125 21.4064 1.02234 20.7783 1.02234C20.5261 1.02234 20.3222 1.17984 20.0405 1.39734C19.6083 1.73062 18.9558 2.235 17.9972 2.235C17.632 2.235 16.9636 1.84969 16.4264 1.54031C15.7772 1.16672 15.3623 0.9375 15.0136 0.9375C14.4361 0.9375 13.5872 1.40437 12.8381 1.81641C12.5334 1.98375 12.1167 2.21344 12.0305 2.23547C10.9448 2.23547 10.3144 1.73484 9.89625 1.40344C9.6525 1.20937 9.47578 1.06875 9.24 1.06875C8.62219 1.06875 8.62219 1.80984 8.62219 2.66812C8.62219 4.32469 9.88406 6.51141 11.5364 7.98094C10.4953 8.05547 9.46875 8.37 8.74734 9.06891C8.34891 9.45422 8.95266 10.0655 9.34969 9.68109C9.94922 9.09984 10.7353 8.85094 11.5763 8.80266C11.6002 8.88844 11.6292 8.97281 11.6648 9.05578C8.14172 11.5875 5.63906 17.5992 5.63906 21.6577C5.63906 22.058 5.67 22.4203 5.71781 22.7616C4.80938 22.358 4.47797 22.0041 4.47141 21.9961L4.22953 21.7172L4.11047 22.0688C3.58406 23.6175 1.29562 24.9609 1.27266 24.9745L0.9375 25.1691L1.27828 25.3533C1.39781 25.418 1.51641 25.4747 1.63594 25.5361L1.42031 25.6856L1.53422 27.1106L10.4653 29.0625L13.8516 26.8964C14.1933 26.8983 14.5392 26.8992 14.8912 26.8992L18.8494 29.0625L27.7973 26.25V24.7458L27.5606 24.6038C27.6788 24.5287 27.7969 24.4523 27.9145 24.3736L28.2281 24.1641L28.1592 24.1303L28.5581 24.0211L28.6256 22.4573L28.395 22.2938C28.5178 22.2202 28.6402 22.1452 28.763 22.0673L29.0625 21.8761ZM9.47484 2.66812C9.47484 2.46 9.47766 2.29781 9.48188 2.17172C9.55359 2.22797 9.63703 2.28938 9.72609 2.35266C9.99938 3.00703 10.5164 3.94922 11.393 4.54266C12.458 5.26453 12.3164 4.43484 12.8845 3.67734C13.4527 2.92031 13.837 2.52375 14.7886 4.47094C15.2034 5.31984 15.8948 2.9475 16.552 2.60109C16.7259 2.69578 16.8994 2.78391 17.0695 2.85891C18.248 4.77516 18.7941 4.1775 19.8408 2.58469C20.1286 2.41594 20.3648 2.235 20.5528 2.09016C20.5538 2.13375 20.5547 2.18203 20.5547 2.23594C20.5547 3.74062 19.3252 5.89875 17.8195 7.30641C17.7484 7.12575 17.6466 6.95875 17.5186 6.81281C16.9106 6.12422 15.9605 6.88781 15.51 7.38891C14.7108 7.13203 13.4086 6.42469 12.5602 6.82969C12.3489 6.92771 12.1548 7.05925 11.9855 7.21922C10.598 5.95453 9.47484 4.12875 9.47484 2.66812ZM17.0705 7.81219C16.8603 7.76762 16.6513 7.71761 16.4438 7.66219C16.7053 7.43672 16.9453 7.35797 17.0461 7.69313C17.0569 7.72969 17.0634 7.77141 17.0705 7.81219ZM13.508 8.10328C13.3528 8.07375 13.1934 8.04703 13.0294 8.02594C12.905 7.94796 12.7832 7.86589 12.6642 7.77984C13.0927 7.4925 13.8314 7.64531 14.5373 7.88484C14.1891 7.92 13.8455 7.99594 13.508 8.10328ZM13.7208 9.34078C13.4583 9.40641 13.1723 9.38016 12.9253 9.28172C13.0256 9.22875 13.1269 9.18281 13.2281 9.13641C13.3922 9.21562 13.5562 9.28172 13.7208 9.34078ZM5.05031 26.4277C3.93229 26.1039 2.84745 25.6749 1.81031 25.1466C2.44641 24.7284 3.83203 23.7173 4.39547 22.5023C4.78172 22.8056 5.67328 23.3587 7.40953 23.7834C7.38 23.8312 7.34391 23.8823 7.30922 23.9325C5.82703 23.5444 4.98422 23.0536 4.97062 23.0452L4.76625 22.9233L4.66828 23.1422C4.53937 23.4291 4.23703 23.4722 4.06875 23.4722C4.02188 23.4722 3.99047 23.4689 3.98625 23.4684L3.81891 23.4441L3.75797 23.6044C3.63328 23.9316 3.12141 24.3591 2.93391 24.4964L2.62078 24.7261L2.97891 24.8728C3.11203 24.9272 3.14812 24.9773 3.15 24.9905C3.15469 25.0228 3.09797 25.1081 3.0375 25.1573L2.76469 25.3772L3.08203 25.5239C3.73219 25.8239 4.46859 26.0723 5.205 26.2772C5.14641 26.3348 5.09578 26.3841 5.05031 26.4277ZM8.83031 24.6811C9.48562 24.773 10.2117 24.8311 11.0048 24.8311H11.0053C11.1703 24.8311 11.3377 24.8283 11.5083 24.8231C11.5196 24.8585 11.5359 24.8921 11.5566 24.923C11.5983 24.9862 11.6545 25.0387 11.7258 25.0795L10.5295 26.1019C10.5067 26.1009 10.4839 26.1004 10.4611 26.1005C9.92812 26.1005 9.53062 26.2964 9.33984 26.6452C8.61701 26.553 7.89754 26.4362 7.18266 26.295C7.75732 25.7836 8.30717 25.2451 8.83031 24.6811ZM3.51047 25.2422C3.55734 25.1536 3.58781 25.0462 3.57141 24.9291C3.55582 24.8233 3.50514 24.7259 3.4275 24.6525C3.63797 24.472 3.92813 24.1936 4.0875 23.9053C4.44984 23.9002 4.74891 23.7628 4.93734 23.52C5.25469 23.6859 5.96953 24.0211 7.02562 24.3117C6.59391 24.8531 6.01219 25.4672 5.55984 25.9237C4.85484 25.7372 4.14469 25.5122 3.51047 25.2422ZM10.1906 27.2152L10.0945 27.2156C9.69094 27.2156 8.35359 27.1828 6.58687 26.8148C6.64875 26.7623 6.71297 26.7084 6.7725 26.6569C8.20594 26.9564 9.36187 27.0848 9.44859 27.0947L9.62016 27.113L9.67313 26.9466C9.78891 26.5875 10.2159 26.5345 10.4606 26.5345C10.5277 26.5345 10.5722 26.5387 10.5773 26.5392L10.6683 26.5491L12.7463 24.7734L12.1908 24.7552C12.0052 24.7486 11.9269 24.7069 11.9077 24.6783L12.0253 24.3703L11.7 24.3839C11.4628 24.3942 11.2312 24.3994 11.0048 24.3994H11.0044C10.35 24.3994 9.74297 24.3562 9.18187 24.2883L9.31219 24.1345C10.4447 24.2859 11.8008 24.3792 13.4381 24.3675C13.0472 24.9159 12.0722 26.0817 10.1906 27.2152ZM14.8894 25.1784V26.0339C14.6227 26.0339 14.363 26.033 14.1089 26.0311L14.0325 25.0683L13.3978 25.1198C13.8253 24.6145 14.0077 24.2775 14.0241 24.247L14.1961 23.9217L13.8328 23.9283C10.3556 23.992 8.08781 23.5777 6.65625 23.1173C6.55172 22.6945 6.49125 22.2164 6.49125 21.6581C6.49125 17.8505 8.92453 12.0952 12.1552 9.76266C12.7275 10.3162 13.5956 10.5586 14.4206 10.02C14.6016 9.90187 14.7591 9.74719 14.9067 9.58266C14.9419 9.58359 14.978 9.59156 15.0136 9.59156C15.1317 9.59156 15.2517 9.58172 15.3713 9.56672C15.5227 9.62719 15.6708 9.68813 15.8081 9.74859C16.4658 10.0383 17.0273 9.85828 17.4108 9.45891C20.37 11.2495 22.7409 15.9862 23.3648 19.815C22.012 20.3559 19.8661 20.8838 16.5727 20.9766C17.2223 20.6053 17.7098 19.9809 17.5345 19.1606C17.3503 18.2934 16.6256 18.0497 15.8752 18.0098C15.8733 17.6025 15.8733 17.1961 15.8761 16.7888C16.1062 16.8905 16.327 17.0077 16.5277 17.1328C16.882 17.3555 17.2027 16.7784 16.8506 16.5558C16.5454 16.3639 16.2196 16.2068 15.8794 16.0875C15.8841 15.6159 15.8864 15.1453 15.8864 14.6747C15.8869 14.2434 15.2461 14.2434 15.2461 14.6747C15.2461 15.0886 15.2433 15.502 15.2395 15.915C14.8985 15.8556 14.5502 15.8497 14.2073 15.8977C14.1516 15.5874 14.084 15.2793 14.0048 14.9742C13.8989 14.5589 13.2802 14.7347 13.3875 15.1514C13.4662 15.4509 13.5305 15.7491 13.5834 16.0514C13.5563 16.0617 13.5267 16.0669 13.5 16.0791C12.6319 16.4227 12.1022 17.2987 12.7373 18.1158C13.0331 18.4964 13.4198 18.6502 13.8431 18.7013C13.8661 19.2652 13.8806 19.8295 13.897 20.393C13.6134 20.2087 13.3552 19.9725 13.1213 19.7227C12.8316 19.417 12.3792 19.8891 12.6684 20.1942C13.0617 20.6128 13.4747 20.9292 13.9223 21.1317C13.9425 21.6131 13.9711 22.0959 14.018 22.575C14.0592 23.0002 14.7005 23.0025 14.6587 22.575C14.6192 22.1606 14.59 21.7453 14.5711 21.3295C14.8148 21.3717 15.0708 21.3825 15.3427 21.3567C15.3731 21.8002 15.4087 22.2436 15.4594 22.687C15.4884 22.9411 15.7313 23.0409 15.9103 22.9894L15.8705 23.91C15.5883 23.9353 15.3005 23.9587 15.0005 23.9784L14.6433 24.0019L14.8336 24.3094C14.8528 24.3403 15.0689 24.682 15.5512 25.1794H14.8894V25.1784ZM26.5556 22.0931C25.9664 22.3702 25.2211 22.6242 24.4617 22.8459C23.9948 22.3636 23.3977 21.72 22.9519 21.1491C23.9452 20.8481 24.5011 20.5378 24.7519 20.3705C24.9502 20.5453 25.2127 20.6362 25.5234 20.6358C25.6266 20.6358 25.718 20.6259 25.7883 20.6147C26.0133 20.9062 26.3761 21.2428 26.603 21.4439C26.4956 21.5541 26.4436 21.6759 26.4478 21.8077C26.4516 21.9202 26.4966 22.0158 26.5556 22.0931ZM23.2017 23.6334C23.2973 23.7178 23.3962 23.8041 23.497 23.8912C21.5967 24.3952 20.1825 24.45 19.8745 24.4552C17.9067 23.2547 16.8867 21.9844 16.4934 21.4125C18.1402 21.3713 19.5014 21.2222 20.6367 21.0169C20.6829 21.0736 20.7296 21.1298 20.7769 21.1856C19.8644 21.3277 18.9447 21.419 18.022 21.4589L17.6437 21.4748L17.8519 21.7931C17.8514 21.7936 17.8092 21.8723 17.5298 21.9267L17.0756 22.0153L19.3088 23.8233L19.4128 23.7952C19.4152 23.7947 19.612 23.7417 19.8502 23.7417C20.1938 23.7417 20.4286 23.8462 20.5467 24.0506L20.6217 24.18L20.7675 24.1542C21.584 24.0054 22.3958 23.8317 23.2017 23.6334ZM16.5938 22.2558L16.0603 22.2267C16.0355 21.9605 16.0106 21.6942 15.9919 21.428C16.0856 21.5836 16.2778 21.8761 16.5938 22.2558ZM15.9338 20.5397C15.903 19.9087 15.8844 19.2772 15.878 18.6455C15.9548 18.6483 16.0308 18.6553 16.103 18.6656C16.9317 18.7913 17.1483 19.7128 16.5014 20.2313C16.3327 20.3648 16.1381 20.4628 15.9338 20.5397ZM20.827 23.7047C20.617 23.4455 20.2828 23.3095 19.8506 23.3095C19.6702 23.3095 19.5112 23.3339 19.4109 23.3536L18.007 22.2159C18.1238 22.1489 18.2025 22.0641 18.2456 21.96C18.2562 21.9341 18.2644 21.9073 18.27 21.8798C19.3828 21.8189 20.3203 21.7078 21.113 21.5719C21.4973 22.0008 22.0622 22.5923 22.8113 23.28C21.8911 23.4989 21.1238 23.6489 20.827 23.7047ZM15.2367 18.6623C15.2456 19.3416 15.2625 20.0227 15.2986 20.7014C15.2381 20.7108 15.1786 20.7225 15.1191 20.7286C14.9175 20.7516 14.7262 20.7347 14.5444 20.6888C14.5214 20.0325 14.5064 19.3748 14.4816 18.7181C14.7337 18.7064 14.9892 18.6816 15.2367 18.6623ZM14.4492 18.0694C14.4199 17.5543 14.3715 17.0405 14.3039 16.5291C14.6146 16.4864 14.9306 16.5024 15.2353 16.5764C15.232 17.0556 15.2312 17.5348 15.233 18.0141C15.0272 18.0253 14.8317 18.045 14.6597 18.0605C14.5897 18.0659 14.5195 18.0689 14.4492 18.0694ZM13.8061 17.9873C13.7662 17.9766 13.7269 17.9681 13.6861 17.9545C13.4985 17.891 13.3287 17.7838 13.1906 17.6419C12.7903 17.2683 13.3397 16.9017 13.6861 16.7278C13.7405 17.145 13.778 17.5659 13.8061 17.9873ZM18.9797 27.112C16.9448 26.0723 15.8531 24.9169 15.4195 24.3816C15.7312 24.3581 16.0261 24.33 16.3181 24.3005L19.6547 26.4661L26.9719 24.4561C23.1984 26.7305 19.4705 27.0769 18.9797 27.112ZM25.0228 23.4136C24.9628 23.3536 24.8911 23.2823 24.8062 23.1966C25.6388 22.9444 26.4441 22.6519 27.0445 22.3303L27.4097 22.1339L27.0394 21.9455C26.9564 21.9028 26.8753 21.8245 26.8739 21.795C26.8748 21.7837 26.9077 21.7237 27.0497 21.6422L27.3206 21.4866L27.0797 21.2859C27.0722 21.2798 26.3208 20.6559 26.0569 20.2542L25.9697 20.123L25.8202 20.1666C25.8188 20.1666 25.6903 20.2036 25.5234 20.2036C25.2656 20.2041 25.0725 20.1197 24.9487 19.9538L24.8119 19.7723L24.6403 19.92C24.6314 19.9275 24.1003 20.363 22.6758 20.7745C22.6289 20.707 22.5837 20.6382 22.5403 20.5683C24.2677 20.0447 25.1503 19.4109 25.5328 19.0641C26.1469 20.3925 27.6089 21.4627 28.2436 21.8822C27.224 22.4992 26.145 23.0122 25.0228 23.4136Z" fill="black" fill-opacity="0.46"/>
<path d="M20.8031 22.0859C20.3358 21.9589 19.8084 22.0456 19.6237 22.2776C19.4405 22.5106 19.672 22.804 20.1389 22.932C20.6067 23.059 21.1336 22.9718 21.3183 22.7393C21.5015 22.5064 21.2709 22.2139 20.8031 22.0859Z" fill="black" fill-opacity="0.46"/>
</g>
<defs>
<clipPath id="clip0_733_410">
<rect width="30" height="30" fill="white"/>
</clipPath>
</defs>
</svg>
