<svg width="25" height="25" viewBox="0 0 25 25" fill="none" xmlns="http://www.w3.org/2000/svg">
<path d="M5.20829 20.8333C5.78359 20.8333 6.24996 20.367 6.24996 19.7917C6.24996 19.2164 5.78359 18.75 5.20829 18.75C4.633 18.75 4.16663 19.2164 4.16663 19.7917C4.16663 20.367 4.633 20.8333 5.20829 20.8333Z" fill="#2D2C2C" fill-opacity="0.74"/>
<path d="M4.16663 4.16675H6.24996V13.5417H4.16663V4.16675Z" fill="#2D2C2C" fill-opacity="0.74"/>
<path d="M7.29171 2.08325H3.12504C2.84877 2.08325 2.58382 2.193 2.38847 2.38835C2.19312 2.5837 2.08337 2.84865 2.08337 3.12492V21.8749C2.08337 22.1512 2.19312 22.4161 2.38847 22.6115C2.58382 22.8068 2.84877 22.9166 3.12504 22.9166H7.29171C7.56797 22.9166 7.83293 22.8068 8.02828 22.6115C8.22363 22.4161 8.33337 22.1512 8.33337 21.8749V3.12492C8.33337 2.84865 8.22363 2.5837 8.02828 2.38835C7.83293 2.193 7.56797 2.08325 7.29171 2.08325ZM7.29171 21.8749H3.12504V3.12492H7.29171V21.8749Z" fill="#2D2C2C" fill-opacity="0.74"/>
<path d="M12.5 20.8333C13.0753 20.8333 13.5417 20.367 13.5417 19.7917C13.5417 19.2164 13.0753 18.75 12.5 18.75C11.9247 18.75 11.4584 19.2164 11.4584 19.7917C11.4584 20.367 11.9247 20.8333 12.5 20.8333Z" fill="#2D2C2C" fill-opacity="0.74"/>
<path d="M11.4584 4.16675H13.5417V13.5417H11.4584V4.16675Z" fill="#2D2C2C" fill-opacity="0.74"/>
<path d="M14.5833 2.08325H10.4167C10.1404 2.08325 9.87545 2.193 9.6801 2.38835C9.48475 2.5837 9.375 2.84865 9.375 3.12492V21.8749C9.375 22.1512 9.48475 22.4161 9.6801 22.6115C9.87545 22.8068 10.1404 22.9166 10.4167 22.9166H14.5833C14.8596 22.9166 15.1246 22.8068 15.3199 22.6115C15.5153 22.4161 15.625 22.1512 15.625 21.8749V3.12492C15.625 2.84865 15.5153 2.5837 15.3199 2.38835C15.1246 2.193 14.8596 2.08325 14.5833 2.08325ZM14.5833 21.8749H10.4167V3.12492H14.5833V21.8749Z" fill="#2D2C2C" fill-opacity="0.74"/>
<path d="M19.7917 20.8333C20.367 20.8333 20.8333 20.367 20.8333 19.7917C20.8333 19.2164 20.367 18.75 19.7917 18.75C19.2164 18.75 18.75 19.2164 18.75 19.7917C18.75 20.367 19.2164 20.8333 19.7917 20.8333Z" fill="#2D2C2C" fill-opacity="0.74"/>
<path d="M18.75 4.16675H20.8333V13.5417H18.75V4.16675Z" fill="#2D2C2C" fill-opacity="0.74"/>
<path d="M21.875 2.08325H17.7083C17.432 2.08325 17.1671 2.193 16.9717 2.38835C16.7764 2.5837 16.6666 2.84865 16.6666 3.12492V21.8749C16.6666 22.1512 16.7764 22.4161 16.9717 22.6115C17.1671 22.8068 17.432 22.9166 17.7083 22.9166H21.875C22.1512 22.9166 22.4162 22.8068 22.6115 22.6115C22.8069 22.4161 22.9166 22.1512 22.9166 21.8749V3.12492C22.9166 2.84865 22.8069 2.5837 22.6115 2.38835C22.4162 2.193 22.1512 2.08325 21.875 2.08325ZM21.875 21.8749H17.7083V3.12492H21.875V21.8749Z" fill="#2D2C2C" fill-opacity="0.74"/>
</svg>
