<svg width="30" height="30" viewBox="0 0 30 30" fill="none" xmlns="http://www.w3.org/2000/svg">
<path d="M23.75 17.5V9.375L17.5 5L11.25 9.375V11.25H8.75V8.125L17.5 1.875L26.25 8.125V17.5H23.75ZM17.5 28.125L8.75 25.6875V27.5H1.25V13.75H11.1875L21.25 17.5V20H27.5V25L17.5 28.125ZM3.75 25H6.25V16.25H3.75V25ZM17.4375 25.5L24.875 23.1875V22.5H16.0312L12.125 21.1875L12.875 18.8125L16.5312 20H18.75V19.1875L10.75 16.25H8.75V23.125L17.4375 25.5ZM18.125 10H19.375V8.75H18.125V10ZM15.625 10H16.875V8.75H15.625V10ZM18.125 12.5H19.375V11.25H18.125V12.5ZM15.625 12.5H16.875V11.25H15.625V12.5Z" fill="#D7B569"/>
</svg>
