<svg width="30" height="30" viewBox="0 0 30 30" fill="none" xmlns="http://www.w3.org/2000/svg">
<g clip-path="url(#clip0_17_126)">
<path d="M28.1249 13.125C27.7799 13.125 27.4999 12.845 27.4999 12.5C27.4999 8.82752 26.0699 5.37376 23.4724 2.77752C23.2286 2.53377 23.2286 2.13752 23.4724 1.89377C23.7161 1.65002 24.1124 1.65002 24.3561 1.89377C27.1899 4.72627 28.7499 8.49252 28.7499 12.5C28.7499 12.845 28.4699 13.125 28.1249 13.125Z" fill="#9A9A9A"/>
<path d="M1.87476 13.125C1.52976 13.125 1.24976 12.845 1.24976 12.5C1.24976 8.49252 2.80976 4.72627 5.64351 1.89377C5.88726 1.65002 6.28351 1.65002 6.52726 1.89377C6.77101 2.13752 6.77101 2.53377 6.52726 2.77752C3.92976 5.37376 2.49976 8.82752 2.49976 12.5C2.49976 12.845 2.21976 13.125 1.87476 13.125Z" fill="#9A9A9A"/>
<path d="M16.8747 5.225C16.5297 5.225 16.2498 4.945 16.2498 4.6V2.5C16.2498 1.81125 15.6885 1.25 14.9998 1.25C14.311 1.25 13.7498 1.81125 13.7498 2.5V4.6C13.7498 4.945 13.4698 5.225 13.1248 5.225C12.7798 5.225 12.4998 4.94625 12.4998 4.6V2.5C12.4998 1.12125 13.621 0 14.9998 0C16.3785 0 17.4997 1.12125 17.4997 2.5V4.6C17.4997 4.94625 17.2197 5.225 16.8747 5.225Z" fill="#9A9A9A"/>
<path d="M14.9998 30C12.5873 30 10.6248 28.0375 10.6248 25.625C10.6248 25.28 10.9048 25 11.2498 25C11.5948 25 11.8748 25.28 11.8748 25.625C11.8748 27.3475 13.2773 28.75 14.9998 28.75C16.7223 28.75 18.1248 27.3475 18.1248 25.625C18.1248 25.28 18.4048 25 18.7498 25C19.0948 25 19.3748 25.28 19.3748 25.625C19.3748 28.0375 17.4123 30 14.9998 30Z" fill="#9A9A9A"/>
<path d="M24.8755 26.25H3.62549C2.59174 26.25 1.75049 25.4088 1.75049 24.375C1.75049 23.8263 1.98924 23.3075 2.40674 22.95C4.37674 21.285 5.50049 18.8625 5.50049 16.2975V12.5C5.50049 7.675 9.42549 3.75 14.2505 3.75C19.0755 3.75 23.0005 7.675 23.0005 12.5V16.2975C23.0005 18.8638 24.1242 21.285 26.0842 22.9412C26.5117 23.3075 26.7505 23.8263 26.7505 24.375C26.7505 25.4088 25.9105 26.25 24.8755 26.25ZM14.2505 5C10.1142 5 6.75049 8.36375 6.75049 12.5V16.2975C6.75049 19.2325 5.46549 22.0013 3.22424 23.8963C3.08049 24.0188 3.00049 24.1925 3.00049 24.375C3.00049 24.72 3.28049 25 3.62549 25H24.8755C25.2205 25 25.5005 24.72 25.5005 24.375C25.5005 24.1925 25.4205 24.0188 25.2817 23.9C23.0367 22.0013 21.7505 19.2312 21.7505 16.2975V12.5C21.7505 8.36375 18.3867 5 14.2505 5Z" fill="#9A9A9A"/>
</g>
<defs>
<clipPath id="clip0_17_126">
<rect width="30" height="30" fill="white"/>
</clipPath>
</defs>
</svg>
