<svg width="30" height="30" viewBox="0 0 30 30" fill="none" xmlns="http://www.w3.org/2000/svg">
<g clip-path="url(#clip0_868_3709)">
<path d="M30 7.5L14.8875 0L0 7.5V9.375H1.875V30H5.625V13.125H24.375V30H28.125V9.375H30V7.5ZM7.5 11.25V9.375H11.25V11.25H7.5ZM13.125 11.25V9.375H16.875V11.25H13.125ZM18.75 11.25V9.375H22.5V11.25H18.75Z" fill="#7E7E7E"/>
<path d="M11.25 16.875H9.375V15H7.5V20.625H13.125V15H11.25V16.875ZM11.25 24.375H9.375V22.5H7.5V28.125H13.125V22.5H11.25V24.375ZM18.75 24.375H16.875V22.5H15V28.125H20.625V22.5H18.75V24.375Z" fill="#7E7E7E"/>
</g>
<defs>
<clipPath id="clip0_868_3709">
<rect width="30" height="30" fill="white"/>
</clipPath>
</defs>
</svg>
