<svg width="25" height="25" viewBox="0 0 25 25" fill="none" xmlns="http://www.w3.org/2000/svg">
<path d="M11.5625 15.0007H8.4375C7.91797 15.0007 7.5 14.5828 7.5 14.0632V7.50073H4.07422C3.37891 7.50073 3.03125 6.66089 3.52344 6.1687L9.46484 0.223389C9.75781 -0.0695801 10.2383 -0.0695801 10.5312 0.223389L16.4766 6.1687C16.9688 6.66089 16.6211 7.50073 15.9258 7.50073H12.5V14.0632C12.5 14.5828 12.082 15.0007 11.5625 15.0007ZM20 14.6882V19.0632C20 19.5828 19.582 20.0007 19.0625 20.0007H0.9375C0.417969 20.0007 0 19.5828 0 19.0632V14.6882C0 14.1687 0.417969 13.7507 0.9375 13.7507H6.25V14.0632C6.25 15.2703 7.23047 16.2507 8.4375 16.2507H11.5625C12.7695 16.2507 13.75 15.2703 13.75 14.0632V13.7507H19.0625C19.582 13.7507 20 14.1687 20 14.6882ZM15.1562 18.1257C15.1562 17.696 14.8047 17.3445 14.375 17.3445C13.9453 17.3445 13.5938 17.696 13.5938 18.1257C13.5938 18.5554 13.9453 18.907 14.375 18.907C14.8047 18.907 15.1562 18.5554 15.1562 18.1257ZM17.6562 18.1257C17.6562 17.696 17.3047 17.3445 16.875 17.3445C16.4453 17.3445 16.0938 17.696 16.0938 18.1257C16.0938 18.5554 16.4453 18.907 16.875 18.907C17.3047 18.907 17.6562 18.5554 17.6562 18.1257Z" fill="#2D2C2C" fill-opacity="0.74"/>
</svg>
